<svg width="46" height="32" viewBox="0 0 46 32" fill="none" xmlns="http://www.w3.org/2000/svg">
<path fill-rule="evenodd" clip-rule="evenodd" d="M23.2421 29.3228C16.1586 29.3228 8.9133 25.0494 3.18439 16.1614C8.9133 7.27337 16.1586 3 23.2421 3C30.3256 3 37.5709 7.27336 43.2998 16.1614C37.5709 25.0494 30.3256 29.3228 23.2421 29.3228ZM45.3322 15.6314C39.3111 5.99774 31.3607 0.999998 23.2421 1C15.1234 1 7.17303 5.99775 1.152 15.6314C0.949333 15.9557 0.949333 16.3671 1.152 16.6914C7.17303 26.325 15.1234 31.3228 23.2421 31.3228C31.3607 31.3228 39.3111 26.3251 45.3322 16.6914C45.5348 16.3671 45.5348 15.9557 45.3322 15.6314ZM28.3228 16.1614C28.3228 18.9674 26.0481 21.2421 23.2421 21.2421C20.4361 21.2421 18.1614 18.9674 18.1614 16.1614C18.1614 13.3554 20.4361 11.0807 23.2421 11.0807C26.0481 11.0807 28.3228 13.3554 28.3228 16.1614ZM30.3228 16.1614C30.3228 20.072 27.1526 23.2421 23.2421 23.2421C19.3315 23.2421 16.1614 20.072 16.1614 16.1614C16.1614 12.2508 19.3315 9.0807 23.2421 9.0807C27.1526 9.0807 30.3228 12.2508 30.3228 16.1614Z" fill="#1F2533"/>
<path d="M3.18439 16.1614L2.97426 16.0259C2.9211 16.1084 2.9211 16.2144 2.97426 16.2968L3.18439 16.1614ZM23.2421 29.3228L23.2421 29.5728H23.2421V29.3228ZM23.2421 3L23.2421 3.25L23.2421 3ZM43.2998 16.1614L43.5099 16.2968C43.5631 16.2144 43.5631 16.1084 43.5099 16.0259L43.2998 16.1614ZM23.2421 1L23.2421 0.75L23.2421 1ZM45.3322 15.6314L45.5442 15.4989L45.5442 15.4989L45.3322 15.6314ZM1.152 15.6314L1.364 15.7639L1.364 15.7639L1.152 15.6314ZM1.152 16.6914L1.364 16.5589L1.364 16.5589L1.152 16.6914ZM23.2421 31.3228L23.2421 31.5728L23.2421 31.5728L23.2421 31.3228ZM45.3322 16.6914L45.5442 16.8239L45.5442 16.8239L45.3322 16.6914ZM2.97426 16.2968C8.73408 25.2328 16.0491 29.5728 23.2421 29.5728L23.2421 29.0728C16.2681 29.0728 9.09253 24.866 3.39452 16.0259L2.97426 16.2968ZM23.2421 2.75C16.0491 2.75 8.73408 7.08997 2.97426 16.0259L3.39452 16.2968C9.09253 7.45677 16.2681 3.25 23.2421 3.25L23.2421 2.75ZM43.5099 16.0259C37.7501 7.08997 30.4351 2.75 23.2421 2.75L23.2421 3.25C30.216 3.25 37.3917 7.45676 43.0897 16.2968L43.5099 16.0259ZM23.2421 29.5728C30.4351 29.5728 37.7501 25.2328 43.5099 16.2968L43.0897 16.0259C37.3917 24.866 30.216 29.0728 23.2421 29.0728V29.5728ZM23.2421 1.25C31.2487 1.25 39.1292 6.17833 45.1202 15.7639L45.5442 15.4989C39.4931 5.81715 31.4728 0.749998 23.2421 0.75L23.2421 1.25ZM1.364 15.7639C7.35498 6.17834 15.2355 1.25 23.2421 1.25L23.2421 0.75C15.0114 0.750002 6.99109 5.81716 0.940002 15.4989L1.364 15.7639ZM1.364 16.5589C1.212 16.3157 1.212 16.0071 1.364 15.7639L0.940002 15.4989C0.686666 15.9042 0.686666 16.4186 0.940002 16.8239L1.364 16.5589ZM23.2421 31.0728C15.2355 31.0728 7.35498 26.1445 1.364 16.5589L0.940002 16.8239C6.99109 26.5056 15.0114 31.5728 23.2421 31.5728L23.2421 31.0728ZM45.1202 16.5589C39.1292 26.1445 31.2487 31.0728 23.2421 31.0728L23.2421 31.5728C31.4728 31.5728 39.4931 26.5056 45.5442 16.8239L45.1202 16.5589ZM45.1202 15.7639C45.2722 16.0071 45.2722 16.3157 45.1202 16.5589L45.5442 16.8239C45.7975 16.4186 45.7975 15.9042 45.5442 15.4989L45.1202 15.7639ZM23.2421 21.4921C26.1862 21.4921 28.5728 19.1055 28.5728 16.1614H28.0728C28.0728 18.8293 25.91 20.9921 23.2421 20.9921V21.4921ZM17.9114 16.1614C17.9114 19.1055 20.298 21.4921 23.2421 21.4921V20.9921C20.5742 20.9921 18.4114 18.8293 18.4114 16.1614H17.9114ZM23.2421 10.8307C20.298 10.8307 17.9114 13.2173 17.9114 16.1614H18.4114C18.4114 13.4935 20.5742 11.3307 23.2421 11.3307V10.8307ZM28.5728 16.1614C28.5728 13.2173 26.1862 10.8307 23.2421 10.8307V11.3307C25.91 11.3307 28.0728 13.4935 28.0728 16.1614H28.5728ZM23.2421 23.4921C27.2907 23.4921 30.5728 20.21 30.5728 16.1614H30.0728C30.0728 19.9339 27.0146 22.9921 23.2421 22.9921V23.4921ZM15.9114 16.1614C15.9114 20.21 19.1935 23.4921 23.2421 23.4921V22.9921C19.4696 22.9921 16.4114 19.9339 16.4114 16.1614H15.9114ZM23.2421 8.8307C19.1935 8.8307 15.9114 12.1128 15.9114 16.1614H16.4114C16.4114 12.3889 19.4696 9.3307 23.2421 9.3307V8.8307ZM30.5728 16.1614C30.5728 12.1128 27.2907 8.8307 23.2421 8.8307V9.3307C27.0146 9.3307 30.0728 12.3889 30.0728 16.1614H30.5728Z" fill="#1F2533"/>
</svg>
