<svg width="68" height="52" viewBox="0 0 68 52" fill="none" xmlns="http://www.w3.org/2000/svg">
<g clip-path="url(#clip0_378_576)">
<path d="M32.5109 2.16096C33.3057 1.27442 34.6943 1.27442 35.4891 2.16096L54.7922 23.6913C54.9567 23.8747 55.0476 24.1124 55.0476 24.3588V49.216C55.0476 50.0878 54.0099 50.5421 53.3693 49.9508L34.6783 32.6975C34.2952 32.3439 33.7048 32.3439 33.3217 32.6975L14.6307 49.9508C13.9901 50.5421 12.9524 50.0878 12.9524 49.216V24.3588C12.9524 24.1124 13.0433 23.8747 13.2078 23.6913L32.5109 2.16096Z" fill="#FD3C76"/>
<mask id="mask0_378_576" style="mask-type:alpha" maskUnits="userSpaceOnUse" x="12" y="1" width="44" height="50">
<path d="M32.5109 2.16096C33.3057 1.27442 34.6943 1.27442 35.4891 2.16096L54.7922 23.6913C54.9567 23.8747 55.0476 24.1124 55.0476 24.3588V49.216C55.0476 50.0878 54.0099 50.5421 53.3693 49.9508L34.6783 32.6975C34.2952 32.3439 33.7048 32.3439 33.3217 32.6975L14.6307 49.9508C13.9901 50.5421 12.9524 50.0878 12.9524 49.216V24.3588C12.9524 24.1124 13.0433 23.8747 13.2078 23.6913L32.5109 2.16096Z" fill="#FD3C76"/>
</mask>
<g mask="url(#mask0_378_576)">
<path d="M34 0.5V32.0714L55.0476 51.5V23.9762L34 0.5Z" fill="#E92862"/>
</g>
<path d="M11.1987 6.55843C11.8062 5.86193 12.9524 6.29153 12.9524 7.2157V23.9513C12.9524 24.1818 12.8727 24.4053 12.7269 24.5839L1.77451 37.994C1.17976 38.7222 0 38.3016 0 37.3614V19.7742C0 19.5325 0.08751 19.299 0.246345 19.1169L11.1987 6.55843Z" fill="#215FFF"/>
<path d="M56.8013 6.55843C56.1938 5.86193 55.0476 6.29153 55.0476 7.2157V23.9513C55.0476 24.1818 55.1273 24.4053 55.2731 24.5839L66.2255 37.994C66.8202 38.7222 68 38.3016 68 37.3614V19.7742C68 19.5325 67.9125 19.299 67.7537 19.1169L56.8013 6.55843Z" fill="#215FFF"/>
</g>
<defs>
<clipPath id="clip0_378_576">
<rect width="68" height="51" fill="white" transform="translate(0 0.5)"/>
</clipPath>
</defs>
</svg>
