<svg width="28" height="22" viewBox="0 0 28 22" fill="none" xmlns="http://www.w3.org/2000/svg">
<path fill-rule="evenodd" clip-rule="evenodd" d="M14 19.6526C10.1373 19.6526 6.04333 16.9926 2.72889 11.1614C6.04333 5.33022 10.1373 2.67022 14 2.67022C17.8626 2.67021 21.9567 5.33021 25.2711 11.1614C21.9567 16.9926 17.8626 19.6526 14 19.6526ZM27.2936 10.6828C23.7559 4.1923 19 0.670214 14 0.670216C9.00002 0.670217 4.24406 4.1923 0.706427 10.6828C0.543821 10.9812 0.543821 11.3416 0.706427 11.64C4.24406 18.1305 9.00002 21.6526 14 21.6526C19 21.6526 23.7559 18.1305 27.2936 11.64C27.4562 11.3416 27.4562 10.9812 27.2936 10.6828ZM16.1385 11.1614C16.1385 12.9436 14.9327 13.907 14 13.907C13.0672 13.907 11.8615 12.9436 11.8615 11.1614C11.8615 9.37917 13.0672 8.4158 14 8.4158C14.9327 8.4158 16.1385 9.37917 16.1385 11.1614ZM18.1385 11.1614C18.1385 13.7823 16.2856 15.907 14 15.907C11.7143 15.907 9.86145 13.7823 9.86145 11.1614C9.86145 8.54048 11.7143 6.4158 14 6.4158C16.2856 6.4158 18.1385 8.54048 18.1385 11.1614Z" fill="#1F2533"/>
<path d="M2.72889 11.1614L2.51154 11.0379C2.468 11.1145 2.468 11.2083 2.51154 11.2849L2.72889 11.1614ZM14 2.67022L14 2.92022L14 2.92022L14 2.67022ZM25.2711 11.1614L25.4884 11.2849C25.532 11.2083 25.532 11.1145 25.4884 11.0379L25.2711 11.1614ZM14 0.670216L14 0.420216L14 0.670216ZM27.2936 10.6828L27.5131 10.5632L27.5131 10.5632L27.2936 10.6828ZM0.706427 10.6828L0.925938 10.8025L0.925938 10.8025L0.706427 10.6828ZM0.706427 11.64L0.486915 11.7596L0.486915 11.7596L0.706427 11.64ZM14 21.6526L14 21.9026L14 21.6526ZM27.2936 11.64L27.0741 11.5203L27.0741 11.5203L27.2936 11.64ZM2.51154 11.2849C5.84957 17.1576 10.012 19.9026 14 19.9026V19.4026C10.2627 19.4026 6.23708 16.8275 2.94623 11.0379L2.51154 11.2849ZM14 2.42022C10.012 2.42022 5.84957 5.16518 2.51154 11.0379L2.94623 11.2849C6.23708 5.49526 10.2627 2.92022 14 2.92022L14 2.42022ZM25.4884 11.0379C22.1504 5.16518 17.988 2.42021 14 2.42022L14 2.92022C17.7373 2.92021 21.7629 5.49525 25.0538 11.2849L25.4884 11.0379ZM14 19.9026C17.988 19.9026 22.1504 17.1576 25.4884 11.2849L25.0538 11.0379C21.7629 16.8275 17.7373 19.4026 14 19.4026V19.9026ZM14 0.920216C18.8706 0.920214 23.5585 4.35245 27.0741 10.8025L27.5131 10.5632C23.9534 4.03214 19.1293 0.420214 14 0.420216L14 0.920216ZM0.925938 10.8025C4.44149 4.35246 9.12937 0.920217 14 0.920216L14 0.420216C8.87067 0.420217 4.04663 4.03215 0.486915 10.5632L0.925938 10.8025ZM0.925938 11.5203C0.803984 11.2966 0.803984 11.0262 0.925938 10.8025L0.486915 10.5632C0.283658 10.9361 0.283659 11.3867 0.486915 11.7596L0.925938 11.5203ZM14 21.4026C9.12937 21.4026 4.44149 17.9703 0.925938 11.5203L0.486915 11.7596C4.04663 18.2906 8.87067 21.9026 14 21.9026L14 21.4026ZM27.0741 11.5203C23.5585 17.9703 18.8706 21.4026 14 21.4026L14 21.9026C19.1293 21.9026 23.9534 18.2906 27.5131 11.7596L27.0741 11.5203ZM27.0741 10.8025C27.196 11.0262 27.196 11.2966 27.0741 11.5203L27.5131 11.7596C27.7163 11.3867 27.7163 10.9361 27.5131 10.5632L27.0741 10.8025ZM14 14.157C15.0945 14.157 16.3885 13.0567 16.3885 11.1614H15.8885C15.8885 12.8305 14.7709 13.657 14 13.657V14.157ZM11.6115 11.1614C11.6115 13.0567 12.9054 14.157 14 14.157V13.657C13.229 13.657 12.1115 12.8305 12.1115 11.1614H11.6115ZM14 8.1658C12.9054 8.1658 11.6115 9.26607 11.6115 11.1614H12.1115C12.1115 9.49227 13.229 8.6658 14 8.6658V8.1658ZM16.3885 11.1614C16.3885 9.26607 15.0945 8.1658 14 8.1658V8.6658C14.7709 8.6658 15.8885 9.49227 15.8885 11.1614H16.3885ZM14 16.157C16.4547 16.157 18.3885 13.8871 18.3885 11.1614H17.8885C17.8885 13.6775 16.1165 15.657 14 15.657V16.157ZM9.61145 11.1614C9.61145 13.8871 11.5452 16.157 14 16.157V15.657C11.8834 15.657 10.1115 13.6775 10.1115 11.1614H9.61145ZM14 6.1658C11.5452 6.1658 9.61145 8.43564 9.61145 11.1614H10.1115C10.1115 8.64531 11.8834 6.6658 14 6.6658V6.1658ZM18.3885 11.1614C18.3885 8.43564 16.4547 6.1658 14 6.1658V6.6658C16.1165 6.6658 17.8885 8.64531 17.8885 11.1614H18.3885Z" fill="#1F2533"/>
</svg>
